<svg xmlns="http://www.w3.org/2000/svg" viewBox="0 0 88.48 88.89">
<path d="M44.24.53a43.92 43.92 0 1 0 .01 87.84A43.92 43.92 0 0 0 44.24.53zm0 .85a43.06 43.06 0 1 1 0 86.13 43.06 43.06 0 1 1 0-86.13zm.08-.1v86.96a43.49 43.49 0 0 0 43.33-43.48A43.49 43.49 0 0 0 44.32 1.28zm-.08-.75A43.92 43.92 0 0 0 33.93 1.8c7.6-.22 15.42.16 23.12 1.24l-5.82.1c-7.62.1-15.82.25-23.96.83a43.92 43.92 0 0 0-10.39 6.12c9.28-.53 18.83-2.33 27.74-2.93 7.6-.52 15.05-.72 22.45-.18A43.92 43.92 0 0 0 44.24.53zm.8 11.42c-11.18-.13-23.39.49-34.11 3.9a43.92 43.92 0 0 0-4.03 5.58 172.04 172.04 0 0 1 43.84-5.8c9.24-.08 18.53.8 27.8 1.4A43.92 43.92 0 0 0 75 13.15a541.07 541.07 0 0 0-29.97-1.2zm-.26 9.65c-9.2.03-18.4.38-27.56 1.2-3.35.31-7.94.46-11.96 1.5a43.92 43.92 0 0 0-2.21 5.08c15.93-5 34.56-4.05 50.87-4.15 10.05-.07 20.1.2 30.12.78a43.92 43.92 0 0 0-1.64-3.2c-9.45-.74-18.97-.98-28.42-1.15-3.07-.05-6.13-.07-9.2-.06zM29.26 33.8c-9.24-.04-18.47.1-27.7.53a43.92 43.92 0 0 0-.82 4.4c28.92-1.38 57.99.31 86.91-.67a43.92 43.92 0 0 0-.58-3.1c-19.28-.3-38.55-1.08-57.81-1.16zm48.34 5.98c-10.73-.03-21.47.36-32.16.57-10.9.22-21.8-.06-32.7.1-3.82.05-8.05-.16-12.21-.03a43.92 43.92 0 0 0-.2 4.01 43.92 43.92 0 0 0 .03.93c29.14.4 58.56-2.95 87.74-2.48a43.92 43.92 0 0 0-.22-2.92 337.2 337.2 0 0 0-10.28-.18zM.47 47.82a43.92 43.92 0 0 0 .55 4.34c28.66 3.67 57.55.7 86.4.13a43.92 43.92 0 0 0 .5-3.34C58.81 48.41 29.5 51.2.47 47.82zm19.22 8.74c-5.88-.01-11.74.03-17.6.12a43.92 43.92 0 0 0 1.44 4.18c26.77-.02 53.82 1.66 80.72 1.6A43.92 43.92 0 0 0 86 57.98c-22.1-.74-44.24-1.39-66.31-1.41zm63.49 8.11c-11.08-.05-22.21.76-32.93 1.34-10.7.58-21.37 1.5-32.05.63-3.17-.26-7.92-1-12.4-1.06a43.92 43.92 0 0 0 3.34 5.2c2.03-.1 4.03-.18 5.9-.11 10.47.37 20.64.04 31.1-.72 11.8-.85 23.5-1.84 35.17-2.05a43.92 43.92 0 0 0 1.87-3.23zM12.5 74.77a43.92 43.92 0 0 0 4.9 4.37 74 74 0 0 0 4.52.38c10.03.41 20.07.48 30.1.66 4.95.08 9.9.14 14.85.18a2.97 2.97 0 0 0-.14 1.75 43.92 43.92 0 0 0 7.1-5.27c-10.1-.16-20.19-.53-30.27-.87-9.93-.34-19.85-.69-29.78-1.1-.34 0-.83-.06-1.28-.1zm45.1 9.44c-6.04-.04-12.27.8-16.33 1-3.77.19-7.53.44-11.29.72a43.92 43.92 0 0 0 11.3 2.28c4.18-.45 8.62-.92 13.06-1.08a43.92 43.92 0 0 0 7.88-2.68c-1.5-.16-3.05-.23-4.62-.24z"/>
</svg>